<mxfile host="app.diagrams.net" modified="2023-10-24T12:09:57.857Z" agent="Mozilla/5.0 (Windows NT 10.0; Win64; x64) AppleWebKit/537.36 (KHTML, like Gecko) Chrome/109.0.0.0 Safari/537.36" version="22.0.6" etag="TXek6mkbmuhbpjJeHF4L" type="github">
  <diagram name="Page-1" id="_E6xiG3tZUYXifAiVvFm">
    <mxGraphModel>
      <root>
        <mxCell id="0" />
        <mxCell id="1" parent="0" />
      </root>
    </mxGraphModel>
  </diagram>
</mxfile>
